<?xml version="1.0" encoding="UTF-8"?>
<svg width="92px" height="103px" viewBox="0 0 92 103" version="1.1" xmlns="http://www.w3.org/2000/svg" xmlns:xlink="http://www.w3.org/1999/xlink">
    <!-- Generator: Sketch 51.2 (57519) - http://www.bohemiancoding.com/sketch -->
    <title>bike-lock</title>
    <desc>Created with Sketch.</desc>
    <defs>
        <polygon id="path-1" points="0.0004 0.732 91.3004 0.732 91.3004 102.8867 0.0004 102.8867"></polygon>
    </defs>
    <g id="Page-1" stroke="none" stroke-width="1" fill="none" fill-rule="evenodd">
        <g id="Desktop" transform="translate(-226.000000, -2602.000000)">
            <g id="section6" transform="translate(0.000000, 2436.000000)">
                <g id="bike-lock" transform="translate(226.000000, 165.000000)">
                    <path d="M61.1104,86.06 L60.0904,84.339 C68.6084,79.289 73.9004,69.961 73.9004,59.999 C73.9004,44.395 61.2054,31.7 45.6004,31.7 C29.9964,31.7 17.3004,44.395 17.3004,59.999 C17.3004,70.027 22.4274,79.089 31.0144,84.243 L29.9854,85.957 C20.7904,80.44 15.3004,70.736 15.3004,59.999 C15.3004,43.292 28.8934,29.7 45.6004,29.7 C62.3074,29.7 75.9004,43.292 75.9004,59.999 C75.9004,70.664 70.2334,80.65 61.1104,86.06" id="Fill-1" fill="#9B9B9B"></path>
                    <path d="M30.6514,103.268 L30.0414,103.034 C25.8434,101.419 22.0984,99.425 18.9124,97.109 L20.0884,95.492 C22.8134,97.472 25.9744,99.209 29.5004,100.664 L29.5004,67.927 C28.7694,66.414 28.1034,65.172 27.5134,64.072 C25.4854,60.291 24.2604,58.009 24.5014,52.159 C24.6004,49.098 24.5994,44.573 24.5004,38.717 L26.5004,38.683 C26.6004,44.572 26.6004,49.13 26.4994,52.232 C26.2814,57.545 27.2824,59.411 29.2754,63.126 C29.9024,64.294 30.6134,65.62 31.4024,67.268 L31.5004,67.473 L31.5004,102.411 L30.6514,103.268 Z" id="Fill-3" fill="#9B9B9B"></path>
                    <g id="Group-7" transform="translate(0.000000, 0.268000)">
                        <mask id="mask-2" fill="white">
                            <use xlink:href="#path-1"></use>
                        </mask>
                        <g id="Clip-6"></g>
                        <path d="M60.4414,102.8867 L59.6004,102.0457 L59.6004,67.1057 L59.6984,66.9007 C60.4874,65.2507 61.1984,63.9257 61.8254,62.7567 C63.8184,59.0417 64.8194,57.1767 64.6014,51.8727 C64.5004,48.7617 64.5004,44.2037 64.6004,38.3147 L66.6004,38.3487 C66.5014,44.2047 66.5004,48.7307 66.5994,51.7997 C66.8394,57.6407 65.6164,59.9227 63.5874,63.7017 C62.9974,64.8037 62.3314,66.0447 61.6004,67.5597 L61.6004,100.3247 C78.2224,93.7907 89.3004,77.6047 89.3004,59.6317 C89.3004,47.2907 84.0264,35.4607 74.8314,27.1747 L74.5034,26.8787 L74.3994,8.2197 L74.4304,8.1777 C74.4194,8.1557 74.3894,7.8307 73.9454,7.3467 C72.6714,5.9587 67.3814,2.7317 45.8004,2.7317 L45.1004,2.7317 C23.5184,2.7317 18.2284,5.9587 16.9554,7.3467 C16.4574,7.8897 16.4804,8.2317 16.4814,8.2457 L16.5694,8.4417 L16.5004,8.4317 L16.5004,27.0387 L16.2154,27.3297 C16.1784,27.3677 12.4484,31.2037 10.9094,33.3197 C5.1594,40.8857 2.0004,50.2597 2.0004,59.7317 C2.0004,69.4727 5.2624,78.9837 11.1864,86.5137 L9.6144,87.7497 C3.4144,79.8687 0.0004,69.9187 0.0004,59.7317 C0.0004,49.8247 3.3044,40.0217 9.3044,32.1267 C10.6774,30.2387 13.5774,27.1867 14.5004,26.2277 L14.5004,8.5157 C14.4494,8.1437 14.4514,7.3067 15.2074,6.3217 C18.0104,2.6647 28.3474,0.7317 45.1004,0.7317 L45.8004,0.7317 C62.5524,0.7317 72.8894,2.6647 75.6934,6.3217 C76.4474,7.3037 76.4514,8.1387 76.4004,8.5117 L76.4984,25.9877 C85.9114,34.6367 91.3004,46.8727 91.3004,59.6317 C91.3004,78.8897 79.1384,96.1867 61.0374,102.6727 L60.4414,102.8867 Z" id="Fill-5" fill="#9B9B9B" mask="url(#mask-2)"></path>
                    </g>
                    <path d="M14.9209,81.727 C14.7429,81.505 -2.6701,59.335 15.7209,36.473 L17.2789,37.727 C-0.1151,59.35 16.3119,80.264 16.4799,80.473 L14.9209,81.727 Z" id="Fill-8" fill="#9B9B9B"></path>
                    <path d="M14.8672,91.7934 L18.8342,94.8154 L25.6942,86.3474 L18.2232,80.2874 L8.8382,91.1654 L11.8812,93.5864 L14.8672,91.7934 Z M19.1662,97.5834 L14.7342,94.2054 L11.7212,96.0144 L5.9632,91.4354 L17.9772,77.5124 L28.5072,86.0524 L19.1662,97.5834 Z" id="Fill-10" fill="#9B9B9B"></path>
                    <path d="M45.6006,100.6 C40.0146,100.6 34.6126,99.096 29.9766,96.252 L31.0236,94.547 C35.3436,97.199 40.3846,98.6 45.6006,98.6 C50.6956,98.6 55.7066,97.23 60.0916,94.638 L61.1096,96.361 C56.4156,99.134 51.0536,100.6 45.6006,100.6" id="Fill-12" fill="#9B9B9B"></path>
                    <path d="M45.6006,95.6 C40.0146,95.6 34.6126,94.096 29.9766,91.252 L31.0236,89.547 C35.3436,92.199 40.3846,93.6 45.6006,93.6 C50.6956,93.6 55.7066,92.23 60.0916,89.638 L61.1096,91.361 C56.4156,94.134 51.0536,95.6 45.6006,95.6" id="Fill-14" fill="#9B9B9B"></path>
                </g>
            </g>
        </g>
    </g>
</svg>