<?xml version="1.0" encoding="UTF-8"?>
<svg width="130px" height="81px" viewBox="0 0 130 81" version="1.1" xmlns="http://www.w3.org/2000/svg" xmlns:xlink="http://www.w3.org/1999/xlink">
    <!-- Generator: Sketch 51.2 (57519) - http://www.bohemiancoding.com/sketch -->
    <title>bike-icon</title>
    <desc>Created with Sketch.</desc>
    <defs>
        <linearGradient x1="100%" y1="50%" x2="0%" y2="50%" id="linearGradient-1">
            <stop stop-color="#6038F6" offset="0%"></stop>
            <stop stop-color="#0DC2E9" offset="100%"></stop>
        </linearGradient>
    </defs>
    <g id="Page-1" stroke="none" stroke-width="1" fill="none" fill-rule="evenodd">
        <g id="Desktop" transform="translate(-768.000000, -772.000000)" fill-rule="nonzero">
            <g id="bike-icon" transform="translate(757.000000, 731.000000)">
                <rect id="Rectangle-2" x="0" y="0" width="151" height="151"></rect>
                <g id="bike" transform="translate(11.000000, 41.000000)" fill="url(#linearGradient-1)">
                    <path d="M102.955716,26.7765052 C99.2070031,26.7765052 95.592173,27.5798163 92.2451081,28.918668 L87.6930999,20.0822466 L87.6930999,6.02430354 C87.6930999,5.22099251 87.1575695,4.41768148 86.3542739,4.14991113 L75.6436663,0.133355963 C74.5726056,-0.268299553 73.5015448,0.267241135 73.099897,1.33832251 C72.6982492,2.40940389 73.2337796,3.48048527 74.3048404,3.88214079 L83.8105046,7.36315526 L83.8105046,18.7433949 L44.5829042,18.7433949 L44.5829042,14.8607249 L49.4026777,14.8607249 C50.4737384,14.8607249 51.4109166,13.9235287 51.4109166,12.8524473 C51.4109166,11.7813659 50.4737384,10.8441697 49.4026777,10.8441697 L36.9515963,10.8441697 C35.8805355,10.8441697 34.9433574,11.7813659 34.9433574,12.8524473 C34.9433574,13.9235287 35.8805355,14.8607249 36.9515963,14.8607249 L40.5664264,14.8607249 L40.5664264,20.350017 L36.6838311,28.7847828 C33.738414,27.5798163 30.3913491,26.9103904 27.0442842,26.9103904 C12.1833162,26.9103904 0,38.9600559 0,53.9551952 C0,68.9503345 12.0494336,81 27.0442842,81 C41.2358393,81 52.8836251,69.8875307 53.9546859,55.9634728 L62.6570546,55.9634728 C63.3264676,55.9634728 63.8619979,55.6957024 64.2636457,55.1601618 L85.2832132,24.7682277 L88.6302781,31.0608308 C80.9989701,35.6129266 75.9114315,44.1815776 75.9114315,53.82131 C75.9114315,68.6825642 87.9608651,80.8661148 102.955716,80.8661148 C117.950566,80.8661148 130,68.8164493 130,53.82131 C130,38.8261707 117.950566,26.7765052 102.955716,26.7765052 Z M27.0442842,76.8495597 C14.3254377,76.8495597 4.01647786,66.5404014 4.01647786,53.82131 C4.01647786,41.1022187 14.3254377,30.7930604 27.0442842,30.7930604 C29.8558187,30.7930604 32.5334706,31.3286011 34.9433574,32.2657973 L25.1699279,53.017999 C25.1699279,53.017999 25.1699279,53.017999 25.1699279,53.1518842 C25.0360453,53.4196545 25.0360453,53.5535397 25.0360453,53.82131 C25.0360453,53.82131 25.0360453,53.82131 25.0360453,53.9551952 C25.0360453,54.2229656 25.0360453,54.3568507 25.1699279,54.6246211 L25.1699279,54.7585062 C25.1699279,54.8923914 25.1699279,54.8923914 25.3038105,55.0262766 C25.3038105,55.1601618 25.4376931,55.1601618 25.5715757,55.2940469 C25.5715757,55.2940469 25.5715757,55.2940469 25.5715757,55.4279321 C25.7054583,55.5618173 25.9732235,55.6957024 26.1071061,55.8295876 L26.2409887,55.8295876 C26.5087539,55.9634728 26.6426365,55.9634728 26.9104016,55.9634728 L49.8043254,55.9634728 C48.8671473,67.6114828 39.0937178,76.8495597 27.0442842,76.8495597 Z M30.1235839,51.8130325 L38.5581874,34.0063045 C44.8506694,37.6212042 49.2687951,44.1815776 49.938208,51.8130325 L30.1235839,51.8130325 Z M61.5859938,51.8130325 L53.8208033,51.8130325 C53.1513903,42.5749556 47.7960865,34.6757304 40.1647786,30.2575197 L43.7796087,22.6260649 L81.6683831,22.6260649 L61.5859938,51.8130325 Z M102.821833,76.8495597 C90.1029866,76.8495597 79.7940268,66.5404014 79.7940268,53.82131 C79.7940268,45.6543145 84.0782698,38.5584004 90.5046344,34.4079601 L101.081359,54.7585062 C101.483007,55.4279321 102.15242,55.8295876 102.821833,55.8295876 C103.089598,55.8295876 103.491246,55.6957024 103.759011,55.5618173 C104.696189,55.0262766 105.097837,53.82131 104.562307,52.8841138 L93.9855819,32.5335676 C96.7971164,31.4624863 99.7425335,30.7930604 102.821833,30.7930604 C115.54068,30.7930604 125.84964,41.1022187 125.84964,53.82131 C125.84964,66.5404014 115.54068,76.8495597 102.821833,76.8495597 Z" id="Shape"></path>
                </g>
            </g>
        </g>
    </g>
</svg>