<?xml version="1.0" encoding="UTF-8"?>
<svg width="106px" height="86px" viewBox="0 0 106 86" version="1.1" xmlns="http://www.w3.org/2000/svg" xmlns:xlink="http://www.w3.org/1999/xlink">
    <!-- Generator: Sketch 51.2 (57519) - http://www.bohemiancoding.com/sketch -->
    <title>card-icon</title>
    <desc>Created with Sketch.</desc>
    <defs>
        <linearGradient x1="100%" y1="50%" x2="0%" y2="50%" id="linearGradient-1">
            <stop stop-color="#6038F6" offset="0%"></stop>
            <stop stop-color="#0DC2E9" offset="100%"></stop>
        </linearGradient>
    </defs>
    <g id="Page-1" stroke="none" stroke-width="1" fill="none" fill-rule="evenodd">
        <g id="Desktop" transform="translate(-459.000000, -772.000000)" fill-rule="nonzero">
            <g id="card-icon" transform="translate(437.000000, 733.000000)">
                <rect id="Rectangle-2" x="0" y="0" width="151" height="151"></rect>
                <g id="credit-card" transform="translate(22.000000, 39.000000)" fill="url(#linearGradient-1)">
                    <path d="M55.4873172,59.6136364 L83.2854101,59.6136364 C84.3278411,59.6136364 85.0227273,58.9029569 85.0227273,57.8368336 L85.0227273,41.8449845 C85.0227273,40.7788613 84.3278411,40.0681818 83.2854101,40.0681818 L55.4873172,40.0681818 C54.4448862,40.0681818 53.75,40.7788613 53.75,41.8449845 L53.75,57.8368336 C53.7497964,58.9027487 54.4448862,59.6136364 55.4873172,59.6136364 Z M57.2246344,43.6217872 L81.5480929,43.6217872 L81.5480929,56.0598227 L57.2246344,56.0598227 L57.2246344,43.6217872 Z" id="Shape"></path>
                    <path d="M103.929817,18.6040279 C102.698906,17.0244348 101.116219,16.1468145 99.1817542,15.9713727 L94.961254,15.4608845 L94.961254,10.530415 L94.961254,7.0203452 C94.961254,3.15918619 91.7958788,0 87.9271557,0 L7.03409827,0 C3.16537513,-0.000205676184 0,3.15898052 0,7.0203452 L0,10.5306206 L0,24.5715167 L0,63.1837238 C0,66.3538109 2.13436134,69.0491973 5.03925248,69.9130372 C4.95063846,73.4634195 7.64223772,76.5456828 11.2548045,76.8735307 L92.4994329,86 C92.6752184,86 93.0269955,86 93.2027809,86 C96.7199331,86 99.8853082,83.3673448 100.236879,80.0327169 L105.512504,23.6938964 C105.68829,21.9386559 105.160727,20.0079735 103.929817,18.6040279 Z M3.51715217,12.2856555 L91.4443079,12.2856555 L91.4443079,16.848993 L91.4443079,22.8162762 L3.51715217,22.8162762 L3.51715217,12.2856555 Z M7.03409827,3.51006976 L87.9269496,3.51006976 C89.8614142,3.51006976 91.4441018,5.08966286 91.4441018,7.0203452 L91.4441018,8.77538008 L3.51715217,8.77538008 L3.51715217,7.0203452 C3.51715217,5.08966286 5.09983974,3.51006976 7.03409827,3.51006976 Z M3.51715217,63.1835182 L3.51715217,26.3263459 L91.4443079,26.3263459 L91.4443079,63.1835182 C91.4443079,65.1142005 89.8616203,66.6937936 87.9271557,66.6937936 L7.21008983,66.6937936 L7.03430435,66.6937936 C5.09983974,66.6937936 3.51715217,65.1142005 3.51715217,63.1835182 Z M101.995352,22.9917179 L96.719727,79.3305384 C96.5439415,81.2612207 94.7852624,82.6651663 92.8510039,82.4897246 L11.782161,73.3632552 C10.0236879,73.1878134 8.79257132,71.7836621 8.61678583,70.204069 L87.9269496,70.204069 C91.7956728,70.204069 94.9610479,67.0448828 94.9610479,63.1837238 L94.9610479,24.571311 L94.9610479,18.7794697 L99.0057626,19.1305589 C99.8851022,19.1305589 100.764236,19.65709 101.291798,20.3590628 C101.819567,21.0610356 102.171344,22.1140977 101.995352,22.9917179 Z" id="Shape"></path>
                </g>
            </g>
        </g>
    </g>
</svg>