<?xml version="1.0" encoding="UTF-8"?>
<svg width="78px" height="113px" viewBox="0 0 78 113" version="1.1" xmlns="http://www.w3.org/2000/svg" xmlns:xlink="http://www.w3.org/1999/xlink">
    <!-- Generator: Sketch 51.2 (57519) - http://www.bohemiancoding.com/sketch -->
    <title>lock-icon</title>
    <desc>Created with Sketch.</desc>
    <defs>
        <linearGradient x1="100%" y1="50%" x2="0%" y2="50%" id="linearGradient-1">
            <stop stop-color="#6038F6" offset="0%"></stop>
            <stop stop-color="#0DC2E9" offset="100%"></stop>
        </linearGradient>
    </defs>
    <g id="Page-1" stroke="none" stroke-width="1" fill="none" fill-rule="evenodd">
        <g id="Desktop" transform="translate(-153.000000, -753.000000)" fill-rule="nonzero">
            <g id="lock-icon" transform="translate(117.000000, 733.000000)">
                <rect id="Rectangle-2" x="0" y="0" width="151" height="151"></rect>
                <g id="locked" transform="translate(36.000000, 20.000000)" fill="url(#linearGradient-1)">
                    <path d="M60.45,41.5255517 L60.45,19.9113793 C60.45,8.93284483 50.82675,0 39,0 C27.17325,0 17.55,8.93284483 17.55,19.9113793 L17.55,41.5255517 C6.9888,48.5042759 0,60.4627931 0,74.0344828 C0,95.520069 17.4954,113 39,113 C60.5046,113 78,95.520069 78,74.0344828 C78,60.4627931 71.0112,48.5042759 60.45,41.5255517 Z M21.45,39.2713966 L21.45,19.9113793 C21.45,11.0817931 29.32215,3.89655172 39,3.89655172 C48.67785,3.89655172 56.55,11.0817931 56.55,19.9113793 L56.55,39.2733448 C56.1834,39.0882586 55.809,38.9246034 55.4385,38.7512069 C54.67215,38.3927241 53.8941,38.0576207 53.1024,37.7478448 C52.59345,37.5491207 52.08255,37.3620862 51.56775,37.1847931 C51.06075,37.0113966 50.55765,36.838 50.04285,36.6860345 C49.1907,36.4327586 48.3288,36.2165 47.46105,36.0216724 C47.0847,35.9378966 46.7064,35.8580172 46.32615,35.7839828 C45.3063,35.5872069 44.2806,35.4274483 43.2471,35.3125 C43.0131,35.2871724 42.7791,35.2715862 42.5451,35.2501552 C41.36535,35.1391034 40.1856,35.0689655 39,35.0689655 C37.8144,35.0689655 36.63465,35.1391034 35.4588,35.2482069 C35.2248,35.2696379 34.98885,35.2852241 34.7568,35.3105517 C33.7233,35.4255 32.6976,35.5852586 31.67775,35.7820345 C31.2975,35.8541207 30.9192,35.9359483 30.54285,36.0197241 C29.6751,36.2145517 28.8132,36.4308103 27.96105,36.6840862 C27.44625,36.8360517 26.9412,37.0113966 26.43615,37.1828448 C25.92135,37.3601379 25.4085,37.5471724 24.9015,37.7458966 C24.10785,38.0537241 23.33175,38.3907759 22.5654,38.7492586 C22.191,38.9226552 21.8166,39.0863103 21.45,39.2713966 Z M39,109.103448 C19.64625,109.103448 3.9,93.3711207 3.9,74.0344828 C3.9,61.2986034 10.75425,50.1583621 20.94885,44.0154483 C22.74285,42.9361034 24.61875,42.0262586 26.5512,41.2859138 C26.8944,41.1553793 27.23955,41.0267931 27.58665,40.906 C28.119,40.7209138 28.6533,40.5436207 29.19345,40.3838621 C29.85645,40.1909828 30.5292,40.0195345 31.2078,39.8656207 C31.7031,39.7526207 32.20035,39.6532586 32.69955,39.5616897 C33.4191,39.4311552 34.1445,39.3142586 34.87965,39.2285345 C35.21115,39.1876207 35.5446,39.1525517 35.87805,39.1233276 C36.9096,39.0317586 37.947,38.9655172 39,38.9655172 C40.053,38.9655172 41.0904,39.0317586 42.12195,39.1233276 C42.4554,39.1545 42.7869,39.189569 43.12035,39.2285345 C43.8555,39.3142586 44.5809,39.4311552 45.30045,39.5616897 C45.79965,39.6532586 46.2969,39.7526207 46.7922,39.8656207 C47.4708,40.0195345 48.14355,40.1909828 48.80655,40.3838621 C49.3467,40.5416724 49.881,40.7209138 50.41335,40.906 C50.7624,41.0267931 51.1056,41.1553793 51.4488,41.2859138 C53.38125,42.0262586 55.25715,42.9361034 57.05115,44.0154483 C67.24575,50.1583621 74.1,61.2986034 74.1,74.0344828 C74.1,93.3711207 58.35375,109.103448 39,109.103448 Z" id="Shape"></path>
                    <path d="M63.0384615,72.5384615 L57.0381154,72.5384615 C56.6595385,69.1391154 55.3119615,66.034 53.2798077,63.4938077 L57.5304615,59.2431538 C58.2974231,58.4761923 58.2974231,57.2365 57.5304615,56.4695385 C56.7635,55.7025769 55.5238077,55.7025769 54.7568462,56.4695385 L50.5061923,60.7201923 C47.966,58.6880385 44.8608846,57.3404615 41.4615385,56.9618846 L41.4615385,50.9615385 C41.4615385,49.8768077 40.5847308,49 39.5,49 C38.4152692,49 37.5384615,49.8768077 37.5384615,50.9615385 L37.5384615,56.9618846 C34.1391154,57.3404615 31.034,58.6880385 28.4938077,60.7201923 L24.2431538,56.4695385 C23.4761923,55.7025769 22.2365,55.7025769 21.4695385,56.4695385 C20.7025769,57.2365 20.7025769,58.4761923 21.4695385,59.2431538 L25.7201923,63.4938077 C23.6880385,66.034 22.3404615,69.1391154 21.9618846,72.5384615 L15.9615385,72.5384615 C14.8768077,72.5384615 14,73.4152692 14,74.5 C14,75.5847308 14.8768077,76.4615385 15.9615385,76.4615385 L21.9618846,76.4615385 C22.3404615,79.8608846 23.6880385,82.966 25.7201923,85.5061923 L21.4695385,89.7568462 C20.7025769,90.5238077 20.7025769,91.7635 21.4695385,92.5304615 C21.8520385,92.9129615 22.3541923,93.1051923 22.8563462,93.1051923 C23.3585,93.1051923 23.8606538,92.9129615 24.2431538,92.5304615 L28.4938077,88.2798077 C31.034,90.3119615 34.1391154,91.6595385 37.5384615,92.0381154 L37.5384615,98.0384615 C37.5384615,99.1231923 38.4152692,100 39.5,100 C40.5847308,100 41.4615385,99.1231923 41.4615385,98.0384615 L41.4615385,92.0381154 C44.8608846,91.6595385 47.966,90.3119615 50.5061923,88.2798077 L54.7568462,92.5304615 C55.1393462,92.9129615 55.6415,93.1051923 56.1436538,93.1051923 C56.6458077,93.1051923 57.1479615,92.9129615 57.5304615,92.5304615 C58.2974231,91.7635 58.2974231,90.5238077 57.5304615,89.7568462 L53.2798077,85.5061923 C55.3119615,82.966 56.6595385,79.8608846 57.0381154,76.4615385 L63.0384615,76.4615385 C64.1231923,76.4615385 65,75.5847308 65,74.5 C65,73.4152692 64.1231923,72.5384615 63.0384615,72.5384615 Z M39.5,88.2307692 C31.9304231,88.2307692 25.7692308,82.0695769 25.7692308,74.5 C25.7692308,66.9304231 31.9304231,60.7692308 39.5,60.7692308 C47.0695769,60.7692308 53.2307692,66.9304231 53.2307692,74.5 C53.2307692,82.0695769 47.0695769,88.2307692 39.5,88.2307692 Z" id="Shape"></path>
                </g>
            </g>
        </g>
    </g>
</svg>