<?xml version="1.0" encoding="UTF-8"?>
<svg width="104px" height="103px" viewBox="0 0 104 103" version="1.1" xmlns="http://www.w3.org/2000/svg" xmlns:xlink="http://www.w3.org/1999/xlink">
    <!-- Generator: Sketch 51.2 (57519) - http://www.bohemiancoding.com/sketch -->
    <title>station</title>
    <desc>Created with Sketch.</desc>
    <defs>
        <polygon id="path-1" points="0 103 104 103 104 0 0 0"></polygon>
    </defs>
    <g id="Page-1" stroke="none" stroke-width="1" fill="none" fill-rule="evenodd">
        <g id="Desktop" transform="translate(-701.000000, -2602.000000)">
            <g id="section6" transform="translate(0.000000, 2436.000000)">
                <g id="station" transform="translate(701.000000, 166.000000)">
                    <path d="M38.5597362,3.0713025 C18.9782002,3.0713025 3.04654771,19.1249079 3.04654771,38.8590198 C3.04654771,48.4979252 9.05959659,61.7246321 20.9160434,78.1683207 C29.0365865,89.4470199 37.1356245,98.3418779 38.4988053,99.8179332 C38.6672614,99.6180758 38.8918697,99.368856 39.1893561,99.0401749 C41.6086734,96.3553436 48.9729558,88.1888815 56.1986501,78.0539444 C67.9798293,61.5524658 73.9534523,48.3257589 73.9534523,38.7386237 C73.9534523,19.0719337 58.0743677,3.0713025 38.5597362,3.0713025 Z M38.547789,100.009363 L38.5597362,100.020198 L38.5597362,99.9323094 C38.5561521,99.9286975 38.5513732,99.9286975 38.547789,99.9286975 L38.547789,100.009363 Z M38.5561521,100.982163 L38.5597362,101.464951 L38.5561521,100.982163 Z M38.5597362,103 C37.7771916,103 37.0364624,102.703826 36.5251202,102.188531 C36.4474631,102.109069 27.4129558,92.4220056 18.4489372,79.973057 C6.20659426,62.9936062 0,49.1601033 0,38.8590198 C0,17.4321399 17.2972227,0 38.5597362,0 C59.75654,0 77,17.3779617 77,38.7386237 C77,48.9831212 70.8340264,62.8130121 58.6729247,79.8478451 C51.3468735,90.1248495 43.8929868,98.3900364 41.4449961,101.106171 C41.2860978,101.281949 41.1498991,101.43124 41.0399845,101.555248 L41.0399845,101.617854 L40.5943522,102.068135 C40.1367727,102.528048 39.5382157,103 38.5597362,103 Z" id="Fill-1" fill="#9B9B9B"></path>
                    <path d="M24.5,36.9794521 C20.890411,36.9794521 17.9794521,39.890411 17.9794521,43.5 C17.9794521,47.109589 20.890411,50.0205479 24.5,50.0205479 C28.109589,50.0205479 31.0205479,47.109589 31.0205479,43.5 C31.1369863,39.890411 28.109589,36.9794521 24.5,36.9794521 M24.5,52 C19.8424658,52 16,48.1575342 16,43.5 C16,38.8424658 19.8424658,35 24.5,35 C29.1575342,35 33,38.8424658 33,43.5 C33,48.1575342 29.1575342,52 24.5,52" id="Fill-3" fill="#9B9B9B"></path>
                    <path d="M37.6329258,44 C37.2685145,44 36.9041032,43.7718121 36.7826327,43.5436242 L28.036761,28.8255034 L25.9717635,28.8255034 C25.3644113,28.8255034 25,28.3691275 25,27.9127517 C25,27.3422819 25.4858818,27 25.9717635,27 L31.6808742,27 C32.2882264,27 32.6526378,27.4563758 32.6526378,27.9127517 C32.6526378,28.4832215 32.166756,28.8255034 31.6808742,28.8255034 L30.3446994,28.8255034 L37.8758667,41.4899329 L48.2008541,30.1946309 C48.5652655,29.852349 49.1726177,29.738255 49.6584994,30.0805369 C50.0229107,30.4228188 50.1443812,30.9932886 49.7799699,31.4496644 L38.4832189,43.6577181 C38.240278,43.885906 37.9973371,44 37.6329258,44" id="Fill-5" fill="#9B9B9B"></path>
                    <path d="M51.8903108,45 C51.407145,45 51.0447706,44.6345405 50.9227712,44.269081 C49.1108994,36.2289715 46.8170697,27.3361232 45.8507381,26.2397447 C45.3675723,25.996105 43.5557005,25.8742852 42.1049951,26.1179248 C41.6230372,26.2397447 41.0190799,25.7524653 41.0190799,25.265186 C40.8970805,24.7779066 41.3814543,24.1688074 41.8646201,24.1688074 C42.7089524,24.0469876 45.7287387,23.681528 47.1794441,24.6560868 C48.7485251,25.7524653 51.5267285,37.0817104 52.9762259,43.7818016 C53.0982253,44.269081 52.734643,44.8781802 52.2526851,45 L51.8903108,45 Z" id="Fill-7" fill="#9B9B9B"></path>
                    <path d="M38.0304416,44 L24.9512164,44 C24.3567061,44 24,43.5 24,43 C24,42.375 24.4756082,42 24.9512164,42 L38.0304416,42 C38.6249519,42 38.981658,42.5 38.981658,43 C39.1005601,43.5 38.6249519,44 38.0304416,44" id="Fill-9" fill="#9B9B9B"></path>
                    <path d="M25.0140845,44 C24.8873239,44 24.6338028,44 24.5070423,43.8818182 C24,43.6454545 23.8732394,43.0545455 24.1267606,42.5818182 L31.0985915,31.4727273 C31.3521127,31 31.9859155,30.8818182 32.4929577,31.1181818 C33,31.3545455 33.1267606,31.9454545 32.8732394,32.4181818 L25.9014085,43.5272727 C25.7746479,43.7636364 25.3943662,44 25.0140845,44" id="Fill-11" fill="#9B9B9B"></path>
                    <path d="M51.5005822,36.9794521 C47.890076,36.9794521 44.9793165,39.890411 44.9793165,43.5 C44.9793165,47.109589 47.890076,50.0205479 51.5005822,50.0205479 C55.109924,50.0205479 58.0206835,47.2260274 58.0206835,43.5 C58.0206835,39.890411 55.109924,36.9794521 51.5005822,36.9794521 M51.5005822,52 C46.8433669,52 43,48.1575342 43,43.5 C43,38.8424658 46.8433669,35 51.5005822,35 C56.1577974,35 60,38.8424658 60,43.5 C60,48.1575342 56.1577974,52 51.5005822,52" id="Fill-13" fill="#9B9B9B"></path>
                    <mask id="mask-2" fill="white">
                        <use xlink:href="#path-1"></use>
                    </mask>
                    <g id="Clip-16"></g>
                    <path d="M39,103 L49.7805949,103 L49.7805949,100 L39,100 L39,103 Z M53.3286085,103 L64.1092034,103 L64.1092034,100 L53.3286085,100 L53.3286085,103 Z M67.657217,103 L78.4378119,103 L78.4378119,100 L67.657217,100 L67.657217,103 Z M81.9858255,103 L92.7664204,103 L92.7664204,100 L81.9858255,100 L81.9858255,103 Z M96.3132362,103 L105,103 L105,100 L96.3132362,100 L96.3132362,103 Z" id="Fill-15" fill="#9B9B9B" mask="url(#mask-2)"></path>
                </g>
            </g>
        </g>
    </g>
</svg>