<svg xmlns="http://www.w3.org/2000/svg" width="132" height="83" viewBox="0 0 132 83">
    <g fill="none" fill-rule="evenodd" transform="translate(-11 -39)">
        <path fill-rule="nonzero" d="M0 0h151v151H0z"/>
        <path fill="#32297B" fill-rule="nonzero" d="M113.956 67.777c-3.749 0-7.364.803-10.71 2.142l-4.553-8.837V47.024c0-.803-.535-1.606-1.339-1.874l-10.71-4.017c-1.071-.401-2.142.134-2.544 1.205-.402 1.071.134 2.142 1.205 2.544l9.506 3.481v11.38H55.583v-3.882h4.82c1.07 0 2.008-.937 2.008-2.009 0-1.07-.937-2.008-2.008-2.008H47.952c-1.071 0-2.009.937-2.009 2.008 0 1.072.938 2.009 2.009 2.009h3.614v5.489l-3.882 8.435c-2.946-1.205-6.293-1.875-9.64-1.875C23.184 67.91 11 79.96 11 94.955A26.97 26.97 0 0 0 38.044 122c14.192 0 25.84-11.112 26.91-25.037h8.703c.67 0 1.205-.267 1.607-.803l21.02-30.392 3.346 6.293C92 76.613 86.911 85.18 86.911 94.82c0 14.862 12.05 27.045 27.045 27.045A26.97 26.97 0 0 0 141 94.821a26.97 26.97 0 0 0-27.044-27.044zM38.044 117.85c-12.719 0-23.028-10.31-23.028-23.029s10.31-23.028 23.028-23.028c2.812 0 5.49.536 7.9 1.473L36.17 94.018v.134c-.134.268-.134.402-.134.67v.133c0 .268 0 .402.134.67v.134c0 .133 0 .133.134.267 0 .134.134.134.268.268v.134c.133.134.401.268.535.402h.134c.268.133.402.133.67.133h22.893c-.937 11.648-10.71 20.887-22.76 20.887zm3.08-25.037l8.434-17.807c6.293 3.615 10.71 10.176 11.38 17.807H41.124zm31.462 0h-7.765c-.67-9.238-6.025-17.137-13.656-21.555l3.615-7.632h37.888L72.586 92.813zm41.236 25.037c-12.719 0-23.028-10.31-23.028-23.029 0-8.167 4.284-15.263 10.71-19.413l10.577 20.35c.402.67 1.071 1.072 1.74 1.072.269 0 .67-.134.938-.268.937-.536 1.339-1.74.803-2.678l-10.576-20.35c2.811-1.072 5.757-1.74 8.836-1.74 12.719 0 23.028 10.308 23.028 23.027 0 12.72-10.31 23.029-23.028 23.029z"/>
        <circle cx="131" cy="51" r="10" stroke="#42E8E0" stroke-width="4"/>
    </g>
</svg>
