<?xml version="1.0" encoding="UTF-8"?>
<svg width="60px" height="36px" viewBox="0 0 60 36" version="1.1" xmlns="http://www.w3.org/2000/svg" xmlns:xlink="http://www.w3.org/1999/xlink">
    <!-- Generator: Sketch 51.2 (57519) - http://www.bohemiancoding.com/sketch -->
    <title>logo</title>
    <desc>Created with Sketch.</desc>
    <defs>
        <polygon id="path-1" points="2.4151885e-05 0.0381764706 35.7535693 0.0381764706 35.7535693 35.1396223 2.4151885e-05 35.1396223"></polygon>
        <polygon id="path-3" points="0 35.5355265 58.6915515 35.5355265 58.6915515 0.433997059 0 0.433997059"></polygon>
    </defs>
    <g id="Page-1" stroke="none" stroke-width="1" fill="none" fill-rule="evenodd">
        <g id="Desktop" transform="translate(-53.000000, -14.000000)">
            <g id="section0">
                <g id="logo" transform="translate(53.817073, 13.713235)">
                    <g id="Group-3" transform="translate(0.000000, 0.395821)">
                        <mask id="mask-2" fill="white">
                            <use xlink:href="#path-1"></use>
                        </mask>
                        <g id="Clip-2"></g>
                        <path d="M15.7298338,4.09720294 C11.2106941,2.20529853 6.01348824,4.33537206 4.12115,8.85451176 C2.22967941,13.3740853 4.35975294,18.5712912 8.87889265,20.4627618 C10.7885838,21.2063353 12.8080324,21.4041588 14.7867015,20.7868279 C14.6392015,21.5334382 14.5784662,21.7013279 14.5424588,22.4739676 C14.3719662,26.1762176 16.5940103,29.6376956 19.9934515,31.0805926 C24.5230029,32.9764015 29.7314882,30.8419897 31.6277309,26.3124382 C33.5239735,21.7833206 31.3891279,16.5739676 26.8595765,14.677725 C24.9399074,13.9306809 22.9148191,13.7345926 20.9266059,14.3566956 C21.0728044,13.6165926 21.1331059,13.4526074 21.1682456,12.6843059 C21.3387382,8.99073235 19.1210324,5.53706324 15.7298338,4.09720294 Z M15.6070618,1.06651176 C19.6125544,3.01221029 22.0632235,7.07540147 21.9478265,11.5173206 C21.9035765,12.4695632 21.8289588,12.6743279 21.6480544,13.5931662 C24.1108706,12.8205265 26.6179368,13.0617324 28.9974588,13.9875118 C34.602025,16.3336294 37.2435765,22.7789456 34.8974588,28.3835118 C32.5509074,33.9880779 26.1055912,36.6296294 20.501025,34.2835118 C16.2946721,32.4983279 13.5455324,28.2151882 13.7559368,23.6344456 C13.8001868,22.6765632 13.8765397,22.4670265 14.0591794,21.5403794 C11.6076426,22.3073794 9.10751765,22.0640044 6.74057647,21.1429971 C1.149025,18.8016515 -1.48688676,12.3706515 0.854458824,6.77866618 C3.19493676,1.18668088 9.62593676,-1.44879706 15.2174882,0.892114706 L15.6070618,1.06651176 Z" id="Fill-1" fill="#FEFEFE" mask="url(#mask-2)"></path>
                    </g>
                    <path d="M17.2355051,12.6257397 C15.4581301,11.8817324 13.4148213,12.7194456 12.6712478,14.4959529 C11.9276743,16.2728941 12.7645199,18.3162029 14.541461,19.0602103 C15.2924096,19.3526074 16.0867404,19.4302618 16.864586,19.1873206 C16.8068875,19.4810191 16.7821596,19.5469603 16.7682772,19.8506368 C16.7014684,21.3065485 17.5747551,22.6670191 18.9113654,23.2344603 C20.6926449,23.9802029 22.7398581,23.1407544 23.4856007,21.3599088 C24.2313434,19.5790632 23.3918949,17.5314162 21.6110493,16.7856735 C20.8566301,16.491975 20.0601301,16.4147544 19.2783801,16.6594309 C19.3360787,16.3683353 19.3595051,16.3041294 19.3738213,16.0017544 C19.4401963,14.5497471 18.5686449,13.1918794 17.2355051,12.6257397 M16.8845419,9.72215882 C18.9976963,10.6193059 20.3798581,12.7719382 20.2740051,15.0738059 C20.2518801,15.5531809 20.2145713,15.6555632 20.1234684,16.1167176 C21.3629022,15.7288794 22.6248949,15.8512176 23.821814,16.3167103 C26.6442699,17.4984456 27.9748066,20.7447471 26.7930713,23.5680706 C25.6117699,26.3913941 22.3646007,27.7214971 19.541711,26.5401956 C17.4233507,25.6404456 16.0381522,23.483475 16.144439,21.1755338 C16.166564,20.6944235 16.2047404,20.5894382 16.296711,20.1239456 C15.0633507,20.5087471 13.8048287,20.3855412 12.6148507,19.9222176 C9.79760074,18.7430853 8.47010074,15.5041588 9.64966691,12.6873426 C10.8283654,9.87052647 14.0677257,8.54259265 16.8845419,9.72215882" id="Fill-4" fill="#FEFEFE"></path>
                    <mask id="mask-4" fill="white">
                        <use xlink:href="#path-3"></use>
                    </mask>
                    <g id="Clip-7"></g>
                    <polygon id="Fill-6" fill="#FEFEFE" mask="url(#mask-4)" points="27.4549559 13.2153059 28.3503676 13.2153059 28.3503676 4.78871765 27.4549559 4.78871765"></polygon>
                    <path d="M29.7282779,13.2152625 L29.7282779,7.87879926 L30.4761897,7.87879926 L30.4761897,8.63755662 C30.8362632,8.05146103 31.3564176,7.75819632 32.0357853,7.75819632 C32.3316529,7.75819632 32.6027926,7.81632868 32.8509397,7.93172574 C33.0986529,8.04712279 33.2838956,8.19896103 33.4071015,8.38637279 C33.5303074,8.57421838 33.6162044,8.79676985 33.6656603,9.05489485 C33.6960279,9.22235074 33.7116456,9.51561544 33.7116456,9.93425515 L33.7116456,13.2152625 L32.8813074,13.2152625 L32.8813074,9.96939485 C32.8813074,9.60064485 32.8483368,9.32516691 32.7841309,9.14252721 C32.7194912,8.9598875 32.6049618,8.81412279 32.4401088,8.70566691 C32.2756897,8.59677721 32.0826382,8.54254926 31.8609544,8.54254926 C31.5073882,8.54254926 31.2015426,8.66445368 30.9447191,8.90913015 C30.6878956,9.15337279 30.5594838,9.61756397 30.5594838,10.300836 L30.5594838,13.2152625 L29.7282779,13.2152625 Z" id="Fill-8" fill="#FEFEFE" mask="url(#mask-4)"></path>
                    <path d="M35.1841294,13.2152625 L35.1841294,8.58246103 L34.4505338,8.58246103 L34.4505338,7.87879926 L35.1841294,7.87879926 L35.1841294,7.31135809 C35.1841294,6.95258603 35.2127618,6.68665221 35.2717618,6.51225515 C35.3520191,6.27755662 35.4925779,6.08754191 35.6938721,5.94177721 C35.8960338,5.7960125 36.1780191,5.72313015 36.5411294,5.72313015 C36.7749603,5.72313015 37.0335191,5.75349779 37.3168059,5.81379926 L37.1918647,6.60249044 C37.0192029,6.56908603 36.8560853,6.55260074 36.7025118,6.55260074 C36.4504603,6.55260074 36.2721588,6.61116691 36.1671735,6.72829926 C36.0626221,6.84586544 36.0101294,7.06494632 36.0101294,7.38640956 L36.0101294,7.87879926 L36.9654088,7.87879926 L36.9654088,8.58246103 L36.0101294,8.58246103 L36.0101294,13.2152625 L35.1841294,13.2152625 Z" id="Fill-9" fill="#FEFEFE" mask="url(#mask-4)"></path>
                    <path d="M37.6168382,13.2153059 L38.4471765,13.2153059 L38.4471765,7.87884265 L37.6168382,7.87884265 L37.6168382,13.2153059 Z M37.6168382,6.88885735 L38.4471765,6.88885735 L38.4471765,5.84898235 L37.6168382,5.84898235 L37.6168382,6.88885735 Z" id="Fill-10" fill="#FEFEFE" mask="url(#mask-4)"></path>
                    <path d="M39.7121625,13.2152625 L39.7121625,7.87879926 L40.4600743,7.87879926 L40.4600743,8.63755662 C40.819714,8.05146103 41.3398684,7.75819632 42.0196699,7.75819632 C42.3155375,7.75819632 42.587111,7.81632868 42.8343904,7.93172574 C43.0825375,8.04712279 43.2673463,8.19896103 43.3905522,8.38637279 C43.5137581,8.57421838 43.600089,8.79676985 43.649111,9.05489485 C43.6799125,9.22235074 43.6955301,9.51561544 43.6955301,9.93425515 L43.6955301,13.2152625 L42.8647581,13.2152625 L42.8647581,9.96939485 C42.8647581,9.60064485 42.8317875,9.32516691 42.7675816,9.14252721 C42.7033757,8.9598875 42.5879787,8.81412279 42.4235596,8.70566691 C42.2591404,8.59677721 42.066089,8.54254926 41.8444051,8.54254926 C41.490839,8.54254926 41.1854272,8.66445368 40.9281699,8.90913015 C40.6713463,9.15337279 40.5429346,9.61756397 40.5429346,10.300836 L40.5429346,13.2152625 L39.7121625,13.2152625 Z" id="Fill-11" fill="#FEFEFE" mask="url(#mask-4)"></path>
                    <path d="M44.9740515,13.2153059 L45.8048235,13.2153059 L45.8048235,7.87884265 L44.9740515,7.87884265 L44.9740515,13.2153059 Z M44.9740515,6.88885735 L45.8048235,6.88885735 L45.8048235,5.84898235 L44.9740515,5.84898235 L44.9740515,6.88885735 Z" id="Fill-12" fill="#FEFEFE" mask="url(#mask-4)"></path>
                    <path d="M48.8834522,12.4060515 L49.0036213,13.2051544 C48.7693566,13.2585147 48.5602537,13.2854118 48.3754449,13.2854118 C48.0739375,13.2854118 47.8401066,13.2333529 47.6739522,13.1296691 C47.5082316,13.0259853 47.3910993,12.8893309 47.322989,12.7201397 C47.2557463,12.5509485 47.2214743,12.1952132 47.2214743,11.6525 L47.2214743,8.58233088 L46.612386,8.58233088 L46.612386,7.87866912 L47.2214743,7.87866912 L47.2214743,6.55767647 L48.0479081,6.01496324 L48.0479081,7.87866912 L48.8834522,7.87866912 L48.8834522,8.58233088 L48.0479081,8.58233088 L48.0479081,11.7023897 C48.0479081,11.9605147 48.0617904,12.1262353 48.0917243,12.1999853 C48.1212243,12.2737353 48.1689449,12.3327353 48.234886,12.3761176 C48.301261,12.4195 48.3958346,12.441625 48.5186066,12.441625 C48.611011,12.441625 48.7324816,12.4294779 48.8834522,12.4060515" id="Fill-13" fill="#FEFEFE" mask="url(#mask-4)"></path>
                    <path d="M52.8251294,10.5369228 C52.5231882,10.6709743 52.0715779,10.784636 51.4676956,10.8787757 C51.1267103,10.932136 50.8846368,10.9924375 50.7436441,11.0596801 C50.6017838,11.126489 50.4924603,11.2245331 50.4156735,11.3533787 C50.3393206,11.4826581 50.3002765,11.6258199 50.3002765,11.782864 C50.3002765,12.0245037 50.3840044,12.225364 50.5518941,12.3863125 C50.71935,12.5468272 50.9648941,12.6270846 51.2880926,12.6270846 C51.6082544,12.6270846 51.8928426,12.5511654 52.1418574,12.3988934 C52.3908721,12.2461875 52.5739456,12.0375184 52.6910779,11.772886 C52.7800118,11.5685551 52.8251294,11.2674816 52.8251294,10.8687978 L52.8251294,10.5369228 Z M52.8945412,12.5568051 C52.5865265,12.8413934 52.2906588,13.0422537 52.0056368,13.1598199 C51.7210485,13.2769522 51.4160706,13.3355184 51.0894015,13.3355184 C50.5514603,13.3355184 50.1375926,13.1927904 49.8482324,12.9060331 C49.5588721,12.6197096 49.4135412,12.2535625 49.4135412,11.8084596 C49.4135412,11.546864 49.4690706,11.308261 49.5779603,11.0922169 C49.6872838,10.8761728 49.8304456,10.7026434 50.0070118,10.5724963 C50.1840118,10.4414816 50.3835706,10.3425699 50.6048206,10.2753272 C50.7683721,10.2289081 51.01435,10.1837904 51.3436221,10.1399743 C52.0143132,10.0532096 52.5084382,9.94909191 52.8251294,9.82848897 C52.8281662,9.70484926 52.8299015,9.62589338 52.8299015,9.59248897 C52.8299015,9.22417279 52.7513794,8.9643125 52.5943353,8.81377574 C52.3821956,8.60944485 52.0668059,8.5070625 51.6477324,8.5070625 C51.2572912,8.5070625 50.9687985,8.58168015 50.7822544,8.73091544 C50.5961441,8.87971691 50.4586221,9.14348162 50.3696882,9.52220956 L49.5571368,9.40160662 C49.6308868,9.02287868 49.7527912,8.71703309 49.9215485,8.48450368 C50.0907397,8.25154044 50.33585,8.07237132 50.6560118,7.94699632 C50.9753059,7.8211875 51.3466588,7.75828309 51.7679015,7.75828309 C52.1865412,7.75828309 52.5266588,7.81207721 52.7878206,7.91879779 C53.04985,8.02638603 53.2420338,8.16130515 53.3648059,8.32355515 C53.4875779,8.48623897 53.5743426,8.6914375 53.6233647,8.93915074 C53.6511294,9.09315809 53.6650118,9.37123897 53.6650118,9.77339338 L53.6650118,10.9794228 C53.6650118,11.8201728 53.6827985,12.3520404 53.7183721,12.5745919 C53.7535118,12.7971434 53.8237912,13.0110184 53.9283426,13.2153493 L53.0606956,13.2153493 C52.9747985,13.0275037 52.9188353,12.807989 52.8945412,12.5568051 Z" id="Fill-14" fill="#FEFEFE" mask="url(#mask-4)"></path>
                    <path d="M54.6205949,11.6223059 L55.4422566,11.4817471 C55.4886757,11.8400853 55.6166537,12.1146956 55.8274919,12.3055779 C56.038764,12.4968941 56.3328963,12.5919015 56.7111904,12.5919015 C57.0929551,12.5919015 57.3762419,12.5073059 57.5601831,12.3381147 C57.7449919,12.1693574 57.8373963,11.9706662 57.8373963,11.7429088 C57.8373963,11.5385779 57.7562713,11.3780632 57.5931537,11.2604971 C57.4790581,11.1802397 57.1962051,11.0778574 56.7437272,10.9542176 C56.1342051,10.7867618 55.7120949,10.6418647 55.4769625,10.5190926 C55.2413963,10.3971882 55.0630949,10.2279971 54.9411904,10.0119529 C54.8197199,9.79590882 54.7585507,9.55730588 54.7585507,9.29614412 C54.7585507,9.057975 54.8093081,8.83802647 54.9086537,8.63499706 C55.0093007,8.43240147 55.1450875,8.26407794 55.3168816,8.13002647 C55.4465949,8.02634265 55.6227272,7.93827647 55.8461463,7.86626176 C56.0691316,7.79424706 56.3086022,7.75823971 56.5636904,7.75823971 C56.9480581,7.75823971 57.2864404,7.81854118 57.5766684,7.93914412 C57.8673301,8.06018088 58.0820728,8.22329853 58.2208963,8.42893088 C58.359286,8.63499706 58.4547272,8.91090882 58.5072199,9.25536471 L57.6946684,9.37640147 C57.6573596,9.10179118 57.550639,8.88748235 57.373639,8.73304118 C57.196639,8.57903382 56.9467566,8.50181324 56.6235581,8.50181324 C56.2422272,8.50181324 55.969786,8.57035735 55.8066684,8.70787941 C55.6435507,8.84540147 55.5624257,9.00591618 55.5624257,9.19029118 C55.5624257,9.30785735 55.5958301,9.41327647 55.6635066,9.50698235 C55.7311831,9.60415882 55.8379037,9.68441618 55.9823669,9.74818824 C56.0652272,9.78159265 56.3099037,9.85881324 56.7159625,9.97941618 C57.3037934,10.1499088 57.7141904,10.2900338 57.9458522,10.3989235 C58.1783816,10.5078132 58.3605875,10.6661588 58.4929037,10.8735265 C58.624786,11.0813279 58.6915949,11.3394529 58.6915949,11.6474676 C58.6915949,11.948975 58.6104699,12.2326956 58.4490875,12.4990632 C58.2877051,12.7654309 58.0543081,12.9714971 57.749764,13.1172618 C57.4456537,13.2625926 57.100764,13.335475 56.7159625,13.335475 C56.0786757,13.335475 55.593661,13.1918794 55.2600507,12.9038206 C54.9255728,12.6153279 54.7125654,12.1884456 54.6205949,11.6223059" id="Fill-15" fill="#FEFEFE" mask="url(#mask-4)"></path>
                    <polygon id="Fill-16" fill="#FEFEFE" mask="url(#mask-4)" points="41.3013015 22.0963676 41.3013015 16.1221838 39.2397721 16.1221838 39.2397721 15.3226471 44.4100809 15.3226471 44.4100809 16.1221838 42.1897721 16.1221838 42.1897721 22.0963676"></polygon>
                    <path d="M45.3077919,19.1718331 L48.0230934,19.1718331 C47.9862184,18.7588331 47.8825346,18.4490831 47.7116081,18.2430169 C47.4491449,17.9224213 47.1081596,17.7619066 46.6903875,17.7619066 C46.3116596,17.7619066 45.9936669,17.8898846 45.7355419,18.1454066 C45.4778507,18.4013625 45.334689,18.7432154 45.3077919,19.1718331 M48.0135493,20.5162522 L48.8655787,20.622539 C48.7310934,21.1244728 48.4820787,21.5144801 48.1185346,21.7916934 C47.7562919,22.0689066 47.2912331,22.2072963 46.7268287,22.2072963 C46.0157919,22.2072963 45.4518213,21.9864801 45.0353507,21.544414 C44.6184463,21.101914 44.410211,20.482414 44.410211,19.6846125 C44.410211,18.8590463 44.6206154,18.218289 45.0418581,17.7619066 C45.4631007,17.3063919 46.0097184,17.0782007 46.6812772,17.0782007 C47.3315787,17.0782007 47.8625787,17.3016199 48.274711,17.7484581 C48.6864096,18.1952963 48.8929096,18.8234728 48.8929096,19.6334213 C48.8929096,19.6828772 48.8911743,19.7566272 48.8881375,19.855539 L45.2618066,19.855539 C45.2921743,20.3947816 45.4431449,20.8073478 45.7147184,21.0936713 C45.9867257,21.3804287 46.3259757,21.5235904 46.7316007,21.5235904 C47.0339757,21.5235904 47.2912331,21.4437669 47.5051081,21.2832522 C47.7194169,21.1231713 47.8886081,20.8672154 48.0135493,20.5162522" id="Fill-17" fill="#FEFEFE" mask="url(#mask-4)"></path>
                    <path d="M52.5650088,20.2989934 L53.3753912,20.4052801 C53.2868912,20.9692507 53.0604353,21.4104493 52.6955897,21.7293096 C52.3307441,22.0481699 51.8830382,22.2073831 51.3516044,22.2073831 C50.6865529,22.2073831 50.1516485,21.9878684 49.7464574,21.548839 C49.3425676,21.1102434 49.1399721,20.4807654 49.1399721,19.6617066 C49.1399721,19.1315743 49.2271706,18.6678169 49.4011338,18.2704346 C49.5746632,17.873486 49.8397294,17.5754493 50.1954647,17.3763243 C50.5507662,17.1776331 50.9377368,17.0782875 51.3563765,17.0782875 C51.8843397,17.0782875 52.3164279,17.2132066 52.6517735,17.482611 C52.9879868,17.7520154 53.2027294,18.1350816 53.2973029,18.6309419 L52.4964647,18.7558831 C52.4201118,18.4261772 52.2847588,18.1780301 52.0908397,18.0118757 C51.8969206,17.8452875 51.6630897,17.7619934 51.3880456,17.7619934 C50.9733103,17.7619934 50.6362294,17.9125301 50.3759353,18.212736 C50.1165088,18.5133757 49.9867956,18.9884125 49.9867956,19.6382801 C49.9867956,20.2976919 50.1126044,20.7766331 50.3624868,21.0759713 C50.6128029,21.3744419 50.9394721,21.5236772 51.3424941,21.5236772 C51.6661265,21.5236772 51.9363985,21.4238978 52.1528765,21.2234713 C52.3697882,21.0230449 52.5068765,20.7150301 52.5650088,20.2989934" id="Fill-18" fill="#FEFEFE" mask="url(#mask-4)"></path>
                    <path d="M54.0804412,22.0963676 L54.0804412,15.3226471 L54.9042721,15.3226471 L54.9042721,17.7529265 C55.2895074,17.3034853 55.7745221,17.0783309 56.3610515,17.0783309 C56.7206912,17.0783309 57.0343456,17.1499118 57.2994118,17.2930735 C57.5653456,17.4366691 57.7553603,17.6344926 57.8694559,17.8869779 C57.9839853,18.1394632 58.04125,18.5060441 58.04125,18.9867206 L58.04125,22.0963676 L57.2169853,22.0963676 L57.2169853,18.9867206 C57.2169853,18.5711176 57.1276176,18.2683088 56.9488824,18.0791618 C56.7701471,17.8891471 56.5180956,17.7945735 56.1909926,17.7945735 C55.9471838,17.7945735 55.7172574,17.8583456 55.5025147,17.9867574 C55.2869044,18.1143015 55.1333309,18.2873971 55.0417941,18.5060441 C54.9506912,18.725125 54.9042721,19.0270662 54.9042721,19.4123015 L54.9042721,22.0963676 L54.0804412,22.0963676 Z" id="Fill-19" fill="#FEFEFE" mask="url(#mask-4)"></path>
                </g>
            </g>
        </g>
    </g>
</svg>